<svg width="72" height="72" viewBox="0 0 72 72" fill="none" xmlns="http://www.w3.org/2000/svg">
<g id="openmoji:dog-face">
<path id="Vector" d="M23.5 14.585L19 16.335L11.75 24.835L7.25 35.585L9.25 40.835C10.505 44.627 12.773 48.019 16.5 50.835L19 47.502C19 47.502 22.822 55.212 29.738 56.462C29.738 56.462 40 58.398 45.333 55.585C48.753 53.782 49.75 51.169 49.75 51.169L53.167 47.752L54.75 50.085L56.833 50.002L62.25 42.752L64 37.336L63.833 32.836L61.5 27.336L56.667 19.919C56.667 19.919 54 15.002 48.5 16.002C48.5 16.002 42 11.169 36.667 11.919C31.334 12.669 32.083 10.669 23.5 14.585Z" fill="#FD9B10"/>
<path id="Vector_2" d="M36 47.252L32.917 49.669H30.417L30.333 53.502L31.083 57.002L32.167 58.919L35 60.419L39.583 59.836L41.167 58.086L42.167 53.836L41.917 49.836L39.917 50.086L36 47.252Z" fill="#EA5A47"/>
<path id="Vector_3" d="M32.5 36.919L30.917 40.669L33.083 41.919L34.333 42.419L38.667 42.586L41.583 40.336L39.833 37.086L32.5 36.919Z" fill="#3F3F3F"/>
<g id="Group">
<path id="Vector_4" d="M29.506 30.109C29.506 30.109 27.701 31.351 26.758 30.777C26.5336 30.6404 26.3384 30.461 26.1833 30.249C26.0283 30.0369 25.9166 29.7964 25.8545 29.5412C25.7924 29.286 25.7812 29.021 25.8216 28.7615C25.8619 28.5019 25.9529 28.2529 26.0895 28.0285C26.3653 27.5754 26.8098 27.2504 27.3253 27.125C27.5805 27.0629 27.8455 27.0517 28.105 27.0921C28.3646 27.1324 28.6136 27.2234 28.838 27.36C29.781 27.935 29.506 30.109 29.506 30.109Z" fill="black"/>
<path id="Vector_5" d="M33.109 37.006H39.255C39.4512 37.0061 39.643 37.0638 39.8066 37.1721C39.9702 37.2804 40.0983 37.4344 40.175 37.615L41.333 40.339L39.153 41.485C39.0105 41.5598 38.852 41.5991 38.691 41.5995C38.5301 41.5999 38.3714 41.5615 38.2285 41.4875C38.0855 41.4135 37.9626 41.3061 37.8701 41.1743C37.7775 41.0426 37.7182 40.8905 37.697 40.731" stroke="black" stroke-width="2" stroke-miterlimit="10" stroke-linecap="round" stroke-linejoin="round"/>
<path id="Vector_6" d="M34.76 40.763C34.7335 40.9097 34.6745 41.0486 34.5873 41.1696C34.5002 41.2905 34.3871 41.3905 34.2563 41.4621C34.1256 41.5337 33.9804 41.5751 33.8316 41.5834C33.6827 41.5917 33.5339 41.5666 33.396 41.51L31.083 40.558L32.173 37.655C32.2444 37.4644 32.3723 37.3002 32.5396 37.1842C32.7068 37.0682 32.9055 37.0061 33.109 37.006" stroke="black" stroke-width="2" stroke-miterlimit="10" stroke-linecap="round" stroke-linejoin="round"/>
<path id="Vector_7" d="M30.436 50.027C30.436 50.027 29.718 58.82 33.444 59.964C36.089 60.777 38.594 60.497 39.506 59.714C40.381 58.964 42.138 55.24 41.333 50.027" stroke="black" stroke-width="2" stroke-miterlimit="10" stroke-linecap="round" stroke-linejoin="round"/>
<path id="Vector_8" d="M44.264 30.109C44.264 30.109 46.069 31.351 47.012 30.777C47.4651 30.5012 47.7901 30.0566 47.9155 29.5412C48.0409 29.0257 47.9563 28.4816 47.6805 28.0285C47.4047 27.5754 46.9602 27.2504 46.4447 27.125C45.9293 26.9996 45.3851 27.0842 44.932 27.36C43.988 27.935 44.264 30.109 44.264 30.109Z" fill="black"/>
<path id="Vector_9" d="M25.625 42.84C25.15 46.442 27.859 48.59 29.909 49.68C30.4927 49.9935 31.155 50.1305 31.8151 50.0742C32.4753 50.0179 33.1048 49.7708 33.627 49.363L36.207 47.339L38.789 49.363C39.311 49.7706 39.9403 50.0177 40.6002 50.0742C41.2602 50.1307 41.9223 49.994 42.506 49.681C44.556 48.59 47.266 46.441 46.791 42.839" stroke="black" stroke-width="2" stroke-miterlimit="10" stroke-linecap="round" stroke-linejoin="round"/>
<path id="Vector_10" d="M19.95 28.357C17.634 33.517 19.443 41.382 20.07 43.733C20.192 44.19 20.145 44.669 19.943 45.096L17.955 49.29C17.332 50.605 15.562 50.843 14.625 49.73C11.432 45.944 6.06601 38.34 8.07501 33.045C15.138 14.435 23.944 14.902 23.944 14.902C26.789 12.968 37.048 7.96399 48.756 15.777C48.756 15.777 57.388 14.059 63.694 32.714C65.497 38.051 60.264 45.581 57.143 49.359C56.212 50.486 54.427 50.252 53.801 48.931L51.826 44.766C51.6228 44.3413 51.5778 43.858 51.699 43.403C52.327 41.052 54.135 33.187 51.819 28.027" stroke="black" stroke-width="2" stroke-miterlimit="10" stroke-linecap="round" stroke-linejoin="round"/>
<path id="Vector_11" d="M52.63 46.463C52.63 46.463 49.553 53.184 44.826 54.734" stroke="black" stroke-width="2" stroke-miterlimit="10" stroke-linecap="round" stroke-linejoin="round"/>
<path id="Vector_12" d="M19.437 46.969C19.437 46.969 22.515 53.051 27.242 54.601" stroke="black" stroke-width="2" stroke-miterlimit="10" stroke-linecap="round" stroke-linejoin="round"/>
<path id="Vector_13" d="M36.208 47.339V44.309" stroke="black" stroke-width="2" stroke-miterlimit="10" stroke-linecap="round" stroke-linejoin="round"/>
</g>
</g>
</svg>
